<?xml version="1.0" encoding="utf-8"?>
<!DOCTYPE svg PUBLIC "-//W3C//DTD SVG 1.0//EN" "http://www.w3.org/TR/2001/REC-SVG-20010904/DTD/svg10.dtd">
<svg version="1.0" xmlns="http://www.w3.org/2000/svg" width="462px" height="181px" viewBox="0 0 462 181" preserveAspectRatio="xMidYMid meet">
 <g fill="#090909">
  <path d="M0 90.59 l0 -90.59 231 0 231 0 0 90.59 0 90.59 -231 0 -231 0 0 -90.59z m76.72 53.79 l1.08 -0.57 0.59 -0.82 0.59 -0.82 0.31 -1.50 0.34 -1.50 -0.20 -1.84 c-0.08 -1.05 -1.30 -8.78 -2.72 -17.21 l-2.55 -15.34 0 -1.56 0 -1.59 1.36 0 1.39 0 3.60 0.99 c2.01 0.54 4.22 1.25 4.93 1.56 l1.30 0.59 5.12 5.01 c2.80 2.77 6.20 5.97 7.56 7.11 l2.46 2.07 0.57 0.88 0.54 0.91 0.34 1.70 0.34 1.70 0.51 0.99 c0.28 0.54 0.85 1.30 1.27 1.70 l0.74 0.71 2.32 1.13 2.32 1.13 1.36 2.69 1.33 2.69 1.64 2.12 1.61 2.09 0.96 0.65 c0.54 0.37 1.08 0.65 1.19 0.65 0.14 0 0.76 -0.45 1.39 -1.02 l1.10 -1.02 0.59 -1.53 0.57 -1.56 0 -0.71 0 -0.71 -0.45 -0.91 c-0.74 -1.39 -2.46 -3.88 -4.36 -6.23 l-1.70 -2.12 0 -0.88 0 -0.91 0.42 -0.17 0.45 -0.14 0.42 -0.85 0.42 -0.82 -0.31 -3.74 c-0.17 -2.07 -0.62 -9.20 -0.99 -15.91 l-0.71 -12.17 0 -5.66 0 -5.66 -0.57 -1.19 -0.54 -1.19 -0.71 -0.20 -0.74 -0.17 -0.68 0.17 -0.68 0.17 -0.93 0.76 -0.91 0.76 -0.57 1.27 -0.57 1.27 -0.11 4.42 -0.14 4.39 0.59 7.64 c0.34 4.22 0.71 10.02 0.79 12.97 l0.17 5.29 -1.27 0 -1.27 0 -3.65 -3.77 c-2.01 -2.09 -4.98 -5.24 -6.62 -7.02 -1.64 -1.78 -3.71 -3.88 -4.59 -4.64 l-1.64 -1.42 -2.04 -1.16 -2.07 -1.19 -0.08 -1.13 -0.08 -1.13 1.39 -0.99 c0.76 -0.57 2.35 -2.07 3.57 -3.31 l2.21 -2.29 2.04 -3.17 c3.85 -5.94 7.02 -11.78 7.56 -13.90 l0.31 -1.30 -0.88 -1.78 -0.88 -1.76 -4.47 -5.94 c-2.43 -3.28 -5.69 -7.59 -7.22 -9.57 l-2.80 -3.62 -1.13 -0.85 -1.16 -0.82 -0.88 0 -0.91 0 -12.65 4.25 c-6.94 2.32 -13.05 4.44 -13.56 4.70 -1.19 0.59 -2.43 1.76 -2.94 2.72 l-0.40 0.76 0 0.88 c0 0.48 0.45 2.80 0.96 5.18 1.56 6.82 5.94 28.28 11.21 54.83 l4.84 24.49 0.54 1.19 0.54 1.19 0.93 0.59 0.93 0.57 0.79 0 0.79 0 1.10 -0.57z m278.79 -1.10 l1.73 -1.70 2.35 -1.16 c2.86 -1.44 5.10 -2.97 9 -6.20 l2.97 -2.43 4.36 -4.25 4.33 -4.25 1.87 -2.41 c1.02 -1.33 2.04 -2.52 2.29 -2.69 0.25 -0.14 1.27 -0.42 2.24 -0.62 l1.81 -0.34 0.96 -0.74 0.99 -0.76 0.96 -1.44 0.99 -1.47 1.78 -1.59 1.78 -1.61 0.48 -1.70 0.45 -1.70 1.42 -1.27 1.42 -1.25 8.86 -5.63 8.86 -5.63 2.12 -1.70 c3 -2.41 3.88 -3.03 5.80 -4.10 0.93 -0.51 1.98 -1.19 2.35 -1.50 l0.62 -0.57 0 -0.54 0 -0.51 -0.57 -0.57 -0.57 -0.57 -0.79 0.17 c-0.96 0.23 -4.44 2.09 -9.26 4.93 -2.01 1.22 -4.50 2.63 -5.52 3.20 l-1.84 1.02 -3.65 1.30 -3.65 1.27 -1.59 0.85 -1.56 0.85 -0.99 0 -1.02 0 -1.64 -5.15 -1.64 -5.18 -0.25 -2.46 -0.28 -2.46 -1.70 -4.67 -1.70 -4.70 0 -2.38 0 -2.35 -0.59 -0.76 -0.57 -0.74 -0.51 0 -0.51 0 -0.68 0.74 -0.68 0.74 -0.08 7.95 c-0.03 4.39 -0.11 8.80 -0.14 9.82 l-0.06 1.84 1.33 2.15 1.33 2.12 1.05 2.80 c0.57 1.56 1.27 3.60 1.56 4.53 l0.54 1.70 0 1.53 0 1.53 -1.76 1.73 c-0.99 0.93 -2.86 2.92 -4.13 4.36 l-2.38 2.60 -2.15 1.67 c-1.22 0.91 -2.89 2.41 -3.77 3.34 l-1.61 1.67 -1.19 2.41 -1.19 2.38 -4.02 3.96 -4.05 3.96 -2.01 2.72 -1.98 2.72 -0.82 0.57 c-0.42 0.31 -1.53 0.85 -2.41 1.19 -0.91 0.37 -2.18 1.02 -2.89 1.44 l-1.25 0.79 -0.82 1.25 c-0.45 0.65 -0.96 1.56 -1.13 1.95 l-0.31 0.74 0.45 0.48 c0.25 0.25 0.59 0.45 0.76 0.45 0.17 0 1.10 -0.76 2.07 -1.67z m-48.97 -10.30 l0.59 -0.62 0.03 -5.24 0.06 -5.24 -0.74 -2.07 c-0.40 -1.13 -1.13 -2.86 -1.67 -3.82 -0.54 -0.96 -1.36 -2.46 -1.81 -3.31 l-0.88 -1.56 -0.37 -1.98 -0.40 -1.98 0 -8.92 0.03 -8.92 0.62 -3.45 0.62 -3.43 0 -1.25 0 -1.27 -0.82 -2.94 c-0.45 -1.61 -0.96 -3.65 -1.16 -4.50 l-0.34 -1.56 0.11 -12.46 0.08 -12.46 1.36 -3.48 c0.74 -1.92 1.33 -3.65 1.33 -3.85 0 -0.20 -0.25 -0.71 -0.57 -1.08 l-0.57 -0.74 -0.57 -0.14 -0.59 -0.14 -0.82 0.68 -0.82 0.71 -1.10 2.89 c-0.62 1.59 -1.36 3.60 -1.61 4.44 -0.82 2.58 -2.24 5.41 -4.22 8.55 -2.21 3.57 -2.29 3.74 -2.86 7.02 l-0.45 2.58 -0.54 1.42 c-0.31 0.79 -1.16 2.72 -1.90 4.30 l-1.33 2.89 -1.87 6.51 -1.87 6.51 -1.08 0 -1.08 0 -1.67 -5.94 c-0.93 -3.26 -2.01 -7.22 -2.38 -8.78 l-0.71 -2.83 -0.34 -4.22 -0.31 -4.19 0.31 -2.75 0.34 -2.72 0.71 -2.21 0.71 -2.21 0 -0.79 0 -0.79 -0.68 -0.62 -0.71 -0.65 -0.74 0.17 -0.74 0.20 -0.54 0.91 c-0.31 0.48 -0.76 1.56 -1.02 2.32 -0.25 0.79 -0.88 2.24 -1.39 3.26 l-0.93 1.84 -0.65 0.59 c-0.37 0.34 -1.61 1.08 -2.72 1.64 l-2.07 1.02 -0.54 1.08 c-0.28 0.57 -0.88 2.21 -1.30 3.60 -0.42 1.42 -1.78 5.01 -3.03 8.04 l-2.26 5.46 -0.37 2.04 c-0.45 2.29 -1.13 8.95 -1.56 14.75 -0.17 2.18 -0.42 4.73 -0.59 5.66 l-0.31 1.70 -0.99 2.63 c-0.54 1.44 -1.10 3.34 -1.30 4.19 l-0.31 1.53 0.37 2.75 c0.23 1.53 0.45 4.13 0.51 5.78 l0.14 3 -0.59 3.14 -0.59 3.14 0.40 1.02 0.42 0.99 0.71 0.34 0.74 0.31 0.59 -0.54 c0.91 -0.82 1.08 -1.25 1.53 -4.42 0.57 -3.74 1.67 -8.44 2.41 -10.08 0.34 -0.74 1.08 -1.98 1.70 -2.77 0.62 -0.82 1.50 -2.24 1.98 -3.17 l0.85 -1.67 0 -0.74 c0 -0.37 -0.20 -1.61 -0.45 -2.75 l-0.48 -2.07 0.34 -2.15 c0.17 -1.19 0.51 -2.97 0.74 -3.96 l0.40 -1.81 -0.17 -3.31 -0.17 -3.28 1.05 -4.19 c0.59 -2.29 1.16 -4.50 1.30 -4.87 l0.28 -0.68 1.39 0 1.39 0 0.34 1.08 c0.20 0.57 1.22 2.83 2.26 5.01 2.29 4.73 6.37 14.49 6.77 16.28 l0.31 1.27 0 1.92 0 1.95 0.45 0.96 0.48 0.99 0.79 0.40 c0.42 0.23 1.08 0.42 1.39 0.42 l0.62 0 0.79 -0.45 0.76 -0.48 0.45 -0.76 0.45 -0.76 0.45 -3.68 0.42 -3.68 0.82 -2.80 c0.45 -1.53 1.59 -4.90 2.52 -7.47 l1.70 -4.67 1.27 -0.08 1.27 -0.08 0.20 2.49 c0.11 1.36 0.62 6 1.16 10.28 l0.99 7.78 0.74 3.68 0.74 3.68 0.82 2.41 0.85 2.41 1.22 2.29 c0.68 1.25 1.73 3.06 2.35 4.02 l1.10 1.70 0.31 1.25 c0.17 0.68 0.40 2.72 0.54 4.53 l0.25 3.34 0.68 0.71 0.65 0.71 0.48 0 0.48 0 0.59 -0.65z m54.21 -4.64 l0.48 -0.57 0.28 -1.53 c0.14 -0.85 0.40 -2.80 0.57 -4.36 0.71 -6.48 0.93 -7.95 2.26 -14.72 0.76 -3.88 1.42 -7.45 1.47 -7.93 l0.08 -0.85 2.69 -0.08 2.69 -0.08 3 0.48 2.97 0.48 0.76 -0.20 0.76 -0.17 0.42 -0.88 0.45 -0.85 -0.08 -0.88 -0.08 -0.88 -0.74 -0.57 -0.76 -0.54 -5.32 -1.33 -5.35 -1.30 0.06 -1.70 0.06 -1.70 1.59 -8.35 c0.85 -4.59 1.64 -9.09 1.76 -9.96 l0.17 -1.61 -0.48 -0.71 -0.45 -0.74 -0.68 -0.17 -0.68 -0.17 -0.82 0.45 -0.85 0.42 -0.48 0.74 c-0.28 0.42 -0.74 1.47 -1.05 2.32 l-0.54 1.59 -1.30 8.92 -1.27 8.95 -0.28 0.48 -0.25 0.48 -1.90 0.20 c-1.08 0.11 -2.41 0.31 -3.03 0.48 l-1.08 0.25 -0.71 0.71 -0.71 0.71 0.14 1.05 0.17 1.05 0.85 0.76 0.88 0.76 2.04 0.59 c1.13 0.34 2.24 0.65 2.43 0.74 l0.34 0.08 0 0.99 c0 0.54 -0.51 4.08 -1.13 7.87 -1.98 12.17 -2.66 17.55 -2.58 19.99 l0.03 0.68 0.85 0.82 0.82 0.85 0.51 -0.28 c0.28 -0.14 0.74 -0.51 1.02 -0.79z m-186.64 -0.79 c0.45 -0.23 0.93 -0.62 1.08 -0.88 l0.25 -0.45 -0.71 -2.18 -0.71 -2.15 -0.17 -5.38 -0.17 -5.38 -0.40 -0.71 c-0.91 -1.64 -2.49 -3.62 -9.99 -12.43 l-2.77 -3.23 0 -0.85 0 -0.82 6.88 -6.85 6.91 -6.82 2.41 -3.06 c1.33 -1.67 2.72 -3.62 3.09 -4.30 l0.68 -1.27 -0.31 -0.48 c-0.17 -0.25 -0.62 -0.74 -1.05 -1.05 l-0.74 -0.54 -0.76 0.51 c-0.42 0.28 -1.10 0.91 -1.50 1.39 -0.40 0.48 -1.61 1.81 -2.72 2.94 l-1.98 2.07 -4.67 3.17 -4.67 3.14 -2.49 2.49 -2.49 2.49 -0.85 0 -0.82 0 0 -3.34 0 -3.31 0.59 -8.63 0.57 -8.63 -0.17 -0.91 -0.17 -0.91 -0.74 -0.59 c-0.93 -0.74 -1.27 -0.71 -2.32 0.14 l-0.85 0.74 -0.28 1.47 -0.28 1.47 -0.74 13.16 c-0.40 7.25 -0.93 15.32 -1.16 17.95 l-0.40 4.81 -1.30 9 -1.27 9.03 0.08 0.62 0.08 0.62 1.02 0.54 1.02 0.57 0.91 -0.40 0.93 -0.37 0.42 -0.65 0.42 -0.68 1.10 -8.12 c0.59 -4.50 1.16 -8.69 1.27 -9.34 l0.14 -1.22 1.39 0 1.39 0 2.49 3.14 c1.36 1.76 3.45 4.30 4.61 5.69 1.16 1.39 2.49 2.97 2.92 3.57 l0.79 1.05 0.68 3.40 c0.37 1.87 1.05 4.78 1.50 6.51 l0.85 3.11 0.88 0.76 c1.02 0.91 1.19 0.93 2.29 0.37z m178.52 -2.55 l0.45 -0.68 -0.20 -3.91 -0.20 -3.91 -0.82 -5.94 c-0.45 -3.26 -1.02 -6.71 -1.27 -7.62 l-0.40 -1.67 -0.79 -1.42 -0.76 -1.42 -1.25 -1.39 -1.25 -1.39 -0.79 -0.42 -0.82 -0.42 0 -0.96 0 -0.96 1.76 -0.93 1.76 -0.93 1.78 -1.67 1.78 -1.64 0.91 -1.87 0.93 -1.87 -0.03 -1.59 -0.06 -1.56 -0.59 -1.61 -0.62 -1.61 -1.39 -1.25 -1.39 -1.25 -1.67 -0.48 -1.64 -0.45 -2.04 0 -2.01 0 -1.50 0.31 -1.50 0.31 -1.36 0.74 -1.36 0.74 -0.76 1.27 -0.76 1.30 0.08 15.15 0.11 15.12 0.40 0.79 0.42 0.82 0.96 0.45 0.99 0.48 0.68 -0.40 0.71 -0.37 0.34 -0.82 0.34 -0.82 -0.25 -3.45 c-0.11 -1.90 -0.23 -4.02 -0.23 -4.73 l-0.03 -1.27 1.33 -0.08 1.30 -0.08 0.62 0.65 c0.88 0.93 1.25 1.73 2.24 4.90 l0.85 2.83 1.47 2.83 c0.79 1.56 1.64 3.34 1.87 3.96 l0.42 1.13 0.23 4.02 0.25 4.05 0.34 0.62 c0.40 0.79 0.79 1.08 1.44 1.08 l0.51 0 0.45 -0.71z m-117.57 -14.86 l0.40 -0.57 -0.82 -3.34 -0.79 -3.31 -0.31 -2.83 -0.28 -2.83 0.28 -6.51 c0.17 -3.57 0.37 -7.67 0.45 -9.12 l0.11 -2.60 -0.28 -0.20 -0.28 -0.17 -0.71 0.65 -0.68 0.62 -0.57 1.53 -0.57 1.53 -0.31 3.45 -0.28 3.45 -0.51 1.13 -0.54 1.13 -1.39 1.44 -1.39 1.42 -0.79 1.42 c-0.45 0.76 -1.59 2.63 -2.52 4.16 l-1.70 2.75 -0.96 0 -0.93 0 0 -0.96 c0 -1.22 0.71 -7.95 1.39 -13.05 l0.51 -3.96 -0.25 -0.51 -0.25 -0.51 -0.34 0.11 c-0.20 0.06 -0.57 0.48 -0.85 0.96 l-0.51 0.88 -0.54 3.77 c-0.28 2.09 -0.62 4.47 -0.71 5.29 l-0.20 1.47 -1.05 0 -1.05 0 -2.41 -4.87 -2.41 -4.87 -0.31 -0.08 -0.34 -0.11 -0.42 0.65 -0.42 0.65 -0.37 2.12 -0.37 2.12 0 6.99 0 6.99 0.48 0.51 0.51 0.48 0.28 -0.28 0.28 -0.28 0.42 -3.37 0.45 -3.40 0.23 -0.23 0.23 -0.23 1.22 0.08 1.22 0.08 1.16 2.72 c0.65 1.50 1.39 3.34 1.70 4.05 l0.51 1.33 0.48 -0.08 0.45 -0.08 0.40 -1.36 0.42 -1.33 1.19 0 1.22 0 0.14 0.51 c0.11 0.28 0.54 0.85 0.96 1.25 l0.76 0.71 0.96 0.34 0.96 0.31 1.08 -0.28 1.05 -0.28 0.88 -0.99 0.85 -0.99 1.25 0 1.25 0 0.51 1.84 0.48 1.84 0.57 0.71 0.54 0.71 0.40 0 0.40 0 0.40 -0.57z m-28.96 -1.42 c0 -0.42 -0.65 -4.64 -1.42 -9.34 -0.79 -4.70 -1.67 -10.42 -2.01 -12.68 l-0.57 -4.10 -0.42 -0.82 -0.42 -0.79 -0.37 0 -0.37 0 -0.59 0.65 c-0.31 0.34 -1.10 1.64 -1.70 2.89 l-1.13 2.26 -1.33 4.08 c-1.59 4.93 -3.09 10.64 -3.68 14.24 l-0.45 2.66 0.28 0.76 0.31 0.76 0.25 0 0.28 0 0.40 -0.76 c0.59 -1.16 1.56 -4.16 2.29 -7.19 l0.65 -2.66 1.30 -0.08 1.33 -0.08 1.73 0.76 1.76 0.79 0.34 0.85 c0.20 0.48 0.71 2.46 1.13 4.42 l0.76 3.54 0.42 0.65 0.40 0.65 0.42 -0.34 0.40 -0.31 0 -0.79z m-63.84 0.45 l0.68 -0.68 0.20 -0.74 0.17 -0.74 -0.17 -0.71 -0.20 -0.74 -0.51 -0.51 -0.54 -0.54 -2.52 -0.20 c-4.25 -0.31 -10.30 -1.02 -11.01 -1.27 l-0.68 -0.28 0 -1.19 c0 -1.08 0.20 -3.31 1.02 -11.66 l0.20 -1.92 2.12 -1.76 c1.16 -0.93 2.75 -2.21 3.51 -2.77 l1.42 -1.08 1.22 0 1.25 0 2.32 0.57 2.32 0.54 0.45 -0.23 c0.25 -0.14 0.68 -0.51 0.93 -0.79 l0.51 -0.54 0.17 -0.85 0.17 -0.85 -0.71 -0.71 -0.71 -0.68 -4.27 -1.10 -4.30 -1.08 -1.22 0.74 -1.22 0.71 -4.10 3.65 -4.10 3.68 -0.45 0.93 c-0.59 1.30 -0.71 2.15 -1.05 8.18 -0.17 2.89 -0.42 6.48 -0.59 8.01 l-0.31 2.75 0.48 0.74 0.48 0.74 0.88 0.37 0.91 0.37 7.22 1.02 c3.96 0.54 7.53 1.05 7.93 1.10 0.40 0.06 0.88 0.14 1.08 0.17 l0.37 0.03 0.68 -0.68z m177.38 -2.58 c0.68 -0.25 1.81 -0.79 2.52 -1.25 l1.27 -0.82 1.67 -0.20 c0.93 -0.11 1.98 -0.31 2.32 -0.45 l0.65 -0.23 0.42 -0.68 0.45 -0.65 -0.88 -3.54 c-0.45 -1.92 -1.10 -4.73 -1.42 -6.20 l-0.57 -2.69 -0.25 -4.73 -0.23 -4.76 -0.51 -0.88 c-0.31 -0.51 -0.88 -1.16 -1.27 -1.47 l-0.76 -0.54 -1.22 0 -1.19 0.03 -1.78 0.88 -1.81 0.88 -1.78 1.76 -1.76 1.76 -1.33 1.84 -1.30 1.84 -2.15 1.92 -2.15 1.92 -0.17 0.65 -0.14 0.65 0.85 1.39 c0.48 0.74 1.02 1.81 1.16 2.38 l0.28 0.99 0 3.03 0 3.03 0.65 0.71 0.62 0.74 1.53 0.28 1.53 0.28 1.36 1.27 1.36 1.27 1.39 0 1.39 0 1.25 -0.42z m-207.28 -38.78 l0.79 -0.40 0.51 -1.05 0.48 -1.05 -0.11 -1.30 -0.14 -1.30 -0.40 -0.82 -0.40 -0.82 -0.76 -0.59 -0.79 -0.57 -0.74 0.28 -0.76 0.25 -0.54 0.71 -0.54 0.71 -0.14 1.02 -0.17 0.99 0.34 1.25 0.34 1.25 0.93 0.93 c1.08 1.08 1.05 1.08 2.09 0.51z"/>
  <path d="M71.22 88.69 c-0.08 -0.45 -1.13 -5.83 -2.32 -11.97 l-2.18 -11.18 -0.03 -1.70 -0.03 -1.67 4.25 -1.64 c2.35 -0.91 5.44 -2.04 6.88 -2.49 l2.60 -0.85 2.09 0 2.09 0 1.27 1.50 c1.53 1.78 4.50 6.26 5.61 8.46 l0.82 1.61 0 1.36 0 1.36 -1.92 3.40 c-1.08 1.87 -2.66 4.56 -3.54 5.97 l-1.61 2.60 -5.83 3 -5.83 3 -1.08 0 -1.08 0 -0.17 -0.76z"/>
  <path d="M340.27 88.83 c0 -0.68 0.25 -2.75 0.57 -4.61 0.31 -1.87 0.57 -3.99 0.57 -4.70 l0 -1.33 0.65 -0.17 c0.34 -0.08 1.53 -0.25 2.63 -0.34 l2.04 -0.20 0.51 0.79 0.51 0.79 0.11 1.81 0.11 1.81 -0.48 1.30 -0.51 1.33 -2.26 2.35 -2.26 2.35 -1.08 0 -1.10 0 0 -1.19z"/>
  <path d="M198.39 95.37 l-0.79 -0.59 0 -1.13 0 -1.16 0.48 -1.53 0.48 -1.50 1.16 0 1.16 0 0.34 2.63 c0.20 1.42 0.34 2.89 0.34 3.26 l0 0.62 -1.19 0 -1.22 -0.03 -0.76 -0.57z"/>
  <path d="M314.54 101.57 l-0.99 -0.65 -0.62 -1.25 -0.62 -1.27 -0.37 -1.70 -0.40 -1.73 0.03 -1.98 0 -1.98 0.59 -1.13 c0.79 -1.50 2.41 -3.34 4.13 -4.70 l1.39 -1.10 1.53 0 1.53 0 0.14 0.65 c0.06 0.34 0.25 1.42 0.42 2.38 l0.31 1.78 0.71 1.90 0.74 1.92 -0.14 1.27 -0.14 1.27 -0.88 2.43 -0.91 2.43 -0.79 0.93 -0.79 0.96 -1.95 0.11 -1.95 0.11 -0.96 -0.68z"/>
 </g>
 <g fill="#a4dc3a">
  <path d="M352.05 145.48 l-0.74 -0.57 0 -0.82 0 -0.82 0.34 -0.79 c0.20 -0.42 0.71 -1.36 1.16 -2.01 l0.82 -1.25 1.25 -0.79 c0.71 -0.42 1.98 -1.08 2.89 -1.44 0.88 -0.34 1.98 -0.88 2.41 -1.19 l0.82 -0.57 1.98 -2.72 2.01 -2.72 4.05 -3.96 4.02 -3.96 1.19 -2.38 1.19 -2.41 1.61 -1.67 c0.88 -0.93 2.55 -2.43 3.77 -3.34 l2.15 -1.67 2.38 -2.60 c1.27 -1.44 3.14 -3.43 4.13 -4.36 l1.76 -1.73 0 -0.68 c0 -0.79 -0.68 -3.03 -2.09 -6.91 l-1.05 -2.80 -1.27 -2.07 -1.30 -2.07 -0.14 -1.16 -0.17 -1.19 0.37 -4.50 0.37 -4.47 -0.25 -3.62 -0.25 -3.60 0.14 -1.53 0.17 -1.50 0.91 -0.82 0.91 -0.82 0.88 0 0.88 0 0.82 0.82 0.82 0.82 0.03 0.68 c0.03 0.37 0 1.42 -0.03 2.35 l-0.06 1.73 1.73 4.76 1.73 4.73 0.28 2.52 0.28 2.55 1.61 5.01 c0.88 2.77 1.64 5.10 1.67 5.15 0.06 0.06 0.85 -0.28 1.78 -0.79 l1.67 -0.88 3.65 -1.30 3.62 -1.27 1.84 -1.02 c1.02 -0.57 3.51 -1.98 5.52 -3.20 5.38 -3.17 7.87 -4.50 9.26 -4.90 l1.22 -0.37 0.91 0.23 0.93 0.25 0.42 0.82 0.42 0.82 0 0.68 0 0.68 -0.57 0.74 -0.57 0.71 -1.92 1.08 c-2.12 1.19 -2.92 1.73 -6 4.22 l-2.12 1.70 -8.86 5.63 -8.86 5.63 -1.42 1.25 -1.42 1.27 -0.45 1.70 -0.48 1.70 -1.78 1.61 -1.78 1.59 -0.99 1.47 -0.96 1.44 -0.99 0.76 -0.96 0.74 -1.81 0.34 c-0.96 0.20 -1.98 0.48 -2.24 0.62 -0.25 0.17 -1.27 1.36 -2.29 2.69 l-1.87 2.41 -4.33 4.25 -4.36 4.25 -2.97 2.43 c-3.91 3.23 -6.14 4.76 -9 6.20 l-2.32 1.16 -1.22 1.19 c-0.65 0.65 -1.56 1.47 -2.01 1.81 l-0.85 0.65 -0.62 0 -0.59 0 -0.76 -0.59z"/>
  <path d="M72.24 145.22 l-0.93 -0.59 -0.54 -1.19 -0.54 -1.19 -4.84 -24.49 c-5.27 -26.55 -9.65 -48.01 -11.21 -54.83 l-0.96 -4.33 0 -1.70 0 -1.73 0.40 -0.76 c0.51 -0.96 1.76 -2.12 2.94 -2.72 0.51 -0.25 6.62 -2.38 13.56 -4.70 l12.65 -4.25 1.76 0 1.73 0 1.16 0.82 1.13 0.85 2.80 3.62 c1.53 1.98 4.78 6.28 7.22 9.57 l4.47 5.94 0.88 1.78 0.91 1.76 -0.17 1.67 -0.14 1.70 -0.74 1.61 c-1.08 2.32 -4.44 8.21 -6.85 11.92 l-2.04 3.17 -2.21 2.29 c-1.22 1.25 -2.80 2.75 -3.57 3.31 l-1.39 0.99 0.11 0.31 c0.03 0.14 0.99 0.79 2.12 1.44 l2.04 1.16 1.64 1.42 c0.88 0.76 2.94 2.86 4.59 4.64 1.64 1.78 4.61 4.93 6.62 7.02 l3.65 3.77 0.42 0 0.42 0 -0.17 -4.53 c-0.11 -2.46 -0.45 -7.93 -0.79 -12.09 l-0.59 -7.59 0.11 -5.24 0.14 -5.24 0.57 -1.27 0.57 -1.30 0.91 -0.74 0.91 -0.76 1.05 -0.31 c1.42 -0.37 1.92 -0.37 2.86 0.14 l0.82 0.40 0.45 1.16 0.45 1.13 0 5.61 0 5.58 0.57 9.77 c0.31 5.38 0.76 12.80 1.02 16.48 l0.48 6.71 -0.20 0.74 -0.20 0.76 -0.68 0.62 -0.68 0.62 1.08 1.27 c1.81 2.09 4.30 5.69 5.01 7.19 l0.68 1.42 0 0.59 c0 0.34 -0.28 1.50 -0.59 2.55 l-0.59 1.95 -1.22 1.19 -1.19 1.22 -1.13 0 -1.13 0 -0.96 -0.65 -0.96 -0.65 -1.61 -2.09 -1.64 -2.12 -1.33 -2.69 -1.36 -2.69 -2.32 -1.13 -2.32 -1.13 -0.74 -0.71 c-0.42 -0.40 -0.99 -1.16 -1.27 -1.70 l-0.51 -0.99 -0.34 -1.70 -0.34 -1.70 -0.54 -0.91 -0.57 -0.88 -2.46 -2.07 c-1.36 -1.13 -4.76 -4.33 -7.56 -7.11 l-5.12 -5.01 -1.30 -0.59 c-1.44 -0.62 -8.24 -2.55 -9.06 -2.55 l-0.51 0 0 0.74 c0 0.40 1.16 7.62 2.58 16.05 l2.55 15.34 0.17 2.69 0.17 2.69 -0.34 1.53 -0.31 1.50 -0.59 0.82 -0.59 0.82 -1.08 0.57 -1.10 0.57 -1.64 0 -1.64 0 -0.93 -0.57z m6.28 -59.62 l5.83 -3 1.61 -2.60 c0.88 -1.42 2.46 -4.10 3.54 -5.97 l1.92 -3.40 0 -0.51 c0 -1.19 -3.93 -7.64 -6.43 -10.59 l-1.27 -1.50 -1.25 0 -1.25 0 -2.60 0.85 c-1.44 0.45 -4.53 1.59 -6.88 2.49 l-4.25 1.64 0.08 0.99 c0.06 0.71 2.97 16.33 4.47 23.84 l0.17 0.76 0.23 0 c0.11 0 2.83 -1.36 6.06 -3z"/>
  <path d="M303.70 133.93 l-0.91 -0.79 -0.25 -3.37 c-0.14 -1.84 -0.37 -3.91 -0.54 -4.59 l-0.31 -1.25 -1.10 -1.70 c-0.62 -0.96 -1.67 -2.77 -2.35 -4.02 l-1.22 -2.29 -0.85 -2.41 -0.82 -2.41 -0.74 -3.68 -0.74 -3.68 -0.99 -7.78 c-0.54 -4.27 -1.05 -8.92 -1.16 -10.28 l-0.20 -2.49 -0.42 0.08 -0.42 0.08 -1.70 4.67 c-0.93 2.58 -2.07 5.94 -2.52 7.47 l-0.82 2.80 -0.42 3.68 -0.45 3.68 -0.48 0.82 -0.48 0.79 -1.13 0.57 -1.16 0.57 -0.71 0 -0.68 0 -1.16 -0.54 -1.16 -0.51 -0.45 -1.02 -0.48 -0.99 0 -1.95 0 -1.92 -0.31 -1.27 c-0.40 -1.78 -4.47 -11.55 -6.77 -16.28 -1.05 -2.18 -2.07 -4.44 -2.26 -5.01 l-0.34 -1.08 -0.51 0 -0.54 0 -0.17 0.25 c-0.08 0.17 -0.68 2.29 -1.30 4.76 l-1.16 4.47 0.20 3.26 0.20 3.26 -0.48 2.12 c-0.25 1.16 -0.57 2.77 -0.71 3.54 l-0.23 1.42 0.54 2.46 0.54 2.46 -0.17 0.93 c-0.25 1.30 -1.61 3.93 -2.94 5.72 -0.62 0.79 -1.36 2.04 -1.70 2.77 -0.74 1.67 -1.84 6.37 -2.41 10.13 l-0.42 2.97 -0.54 0.71 -0.51 0.71 -0.76 0.37 -0.76 0.37 -0.99 -0.31 -0.99 -0.34 -0.45 -0.68 -0.42 -0.68 -0.14 -1.22 -0.14 -1.19 0.59 -3.06 0.59 -3.06 0 -1.61 c0 -0.88 -0.20 -2.83 -0.42 -4.30 l-0.42 -2.69 0 -2.12 0 -2.12 0.31 -1.13 c0.17 -0.62 0.74 -2.26 1.25 -3.68 l0.93 -2.55 0.31 -1.70 c0.17 -0.93 0.42 -3.48 0.59 -5.66 0.42 -5.80 1.10 -12.46 1.56 -14.75 l0.37 -2.04 2.26 -5.46 c1.25 -3.03 2.60 -6.62 3.03 -8.04 0.42 -1.39 1.02 -3.03 1.30 -3.60 l0.54 -1.08 2.07 -1.02 c1.10 -0.57 2.35 -1.30 2.72 -1.64 l0.65 -0.59 0.93 -1.84 c0.51 -1.02 1.08 -2.35 1.27 -2.97 0.20 -0.62 0.59 -1.61 0.88 -2.18 l0.54 -1.08 0.88 -0.45 0.88 -0.45 0.93 0.17 0.91 0.17 0.68 0.74 0.68 0.74 -0.03 1.44 -0.03 1.47 -0.76 2.29 -0.74 2.32 -0.31 2.29 -0.31 2.29 0.31 3.77 0.31 3.74 0.71 2.83 c0.37 1.56 1.44 5.52 2.38 8.78 l1.67 5.94 0.23 -0.06 0.25 -0.03 1.84 -6.48 1.87 -6.45 1.33 -2.89 c0.74 -1.59 1.59 -3.51 1.90 -4.30 l0.54 -1.42 0.45 -2.58 c0.57 -3.28 0.65 -3.45 2.86 -7.02 1.98 -3.14 3.40 -5.97 4.22 -8.55 0.25 -0.85 0.99 -2.86 1.61 -4.44 l1.10 -2.89 0.91 -0.76 0.88 -0.74 1.27 0.14 1.27 0.14 0.65 0.76 0.65 0.74 0 1.25 0 1.25 -1.33 3.48 -1.36 3.48 -0.08 11.61 -0.11 11.61 0.34 1.56 c0.20 0.85 0.71 2.89 1.16 4.50 l0.82 2.94 0 2.12 0 2.09 -0.62 3.43 -0.62 3.45 -0.03 8.07 0 8.07 0.40 1.98 0.37 1.98 0.88 1.56 c0.45 0.85 1.27 2.35 1.81 3.31 0.54 0.96 1.30 2.69 1.70 3.82 l0.74 2.07 -0.03 6.09 0 6.09 -0.88 0.76 -0.88 0.79 -0.85 0 -0.85 0 -0.91 -0.82z"/>
  <path d="M357.74 129.63 l-0.76 -0.57 -0.28 -1.10 -0.31 -1.13 0.31 -3.03 c0.31 -3.23 1.78 -13.19 3 -20.27 l0.71 -4.19 -0.17 -0.28 c-0.11 -0.14 -0.34 -0.25 -0.57 -0.25 -0.20 0 -1.22 -0.25 -2.24 -0.59 l-1.90 -0.57 -0.85 -0.76 -0.82 -0.76 -0.23 -1.27 -0.23 -1.27 0.23 -0.91 0.23 -0.91 0.65 -0.45 c0.79 -0.57 2.12 -0.91 4.53 -1.13 l1.90 -0.20 0.25 -0.48 0.28 -0.48 1.27 -8.95 1.30 -8.92 0.54 -1.59 c0.31 -0.85 0.76 -1.90 1.05 -2.32 l0.48 -0.74 0.79 -0.42 0.79 -0.40 1.30 0 1.30 0 0.74 0.74 0.74 0.74 -0.17 2.58 -0.14 2.60 -1.56 8.21 c-0.88 4.53 -1.61 8.66 -1.67 9.20 l-0.08 0.99 5.29 1.30 5.29 1.30 0.74 0.48 0.74 0.48 0.28 0.76 0.31 0.76 -0.17 1.10 c-0.11 0.59 -0.37 1.44 -0.59 1.87 l-0.42 0.79 -0.99 0.34 -1.02 0.34 -3.45 -0.62 -3.45 -0.59 -1.98 0.08 -1.98 0.08 -0.08 0.85 c-0.06 0.48 -0.71 4.05 -1.47 7.93 -0.76 3.91 -1.53 8.24 -1.70 9.63 -0.82 7.28 -1.22 10.22 -1.42 10.79 l-0.25 0.59 -0.76 0.62 -0.76 0.59 -0.91 0 -0.91 0 -0.74 -0.59z"/>
  <path d="M170.96 128.01 l-0.88 -0.76 -0.85 -3.11 c-0.45 -1.73 -1.13 -4.64 -1.50 -6.51 l-0.68 -3.40 -0.79 -1.05 c-0.42 -0.59 -1.76 -2.18 -2.92 -3.57 -1.16 -1.39 -3.26 -3.93 -4.61 -5.69 l-2.49 -3.14 -0.54 0 -0.54 0 -0.14 1.22 c-0.11 0.65 -0.62 4.56 -1.16 8.69 -0.54 4.13 -1.13 7.98 -1.30 8.58 l-0.28 1.08 -0.91 0.54 -0.91 0.57 -1.22 0 -1.22 0 -0.85 -0.42 -0.85 -0.45 -0.25 -0.71 -0.28 -0.68 1.42 -9.85 1.42 -9.82 0.42 -4.95 c0.23 -2.72 0.74 -10.81 1.13 -17.98 l0.74 -13.02 0.28 -1.47 0.28 -1.47 0.85 -0.74 0.88 -0.71 1.22 0 1.25 0 0.76 0.65 0.76 0.68 0.11 1.53 0.14 1.53 -0.59 8.78 c-0.34 4.84 -0.59 9.91 -0.59 11.24 l0 2.46 2.49 -2.49 2.46 -2.46 4.67 -3.14 4.67 -3.17 1.98 -2.07 c1.10 -1.13 2.32 -2.46 2.69 -2.92 0.40 -0.48 1.02 -1.08 1.42 -1.36 l0.68 -0.48 1.08 0 1.08 0 0.88 0.79 0.91 0.79 0 1.16 0 1.19 -0.76 1.30 c-0.42 0.74 -1.81 2.60 -3.09 4.19 l-2.29 2.89 -6.88 6.82 -6.88 6.82 2.77 3.23 c7.90 9.26 9.17 10.87 10.13 12.71 l0.51 0.99 -0.06 4.39 -0.08 4.39 0.59 2.12 c0.31 1.16 0.71 2.63 0.88 3.28 l0.34 1.13 -0.20 0.76 -0.20 0.79 -0.91 0.54 -0.91 0.57 -1.19 0 -1.22 0 -0.88 -0.79z"/>
  <path d="M350.29 126.48 l-0.62 -0.28 -0.31 -0.74 -0.34 -0.71 -0.25 -3.99 -0.23 -3.99 -0.42 -1.13 c-0.23 -0.62 -1.08 -2.41 -1.87 -3.96 l-1.44 -2.83 -0.99 -3.11 -0.96 -3.11 -0.65 -0.91 -0.65 -0.93 -0.54 -0.17 -0.51 -0.17 -0.23 0.25 -0.20 0.23 0.23 2.12 c0.11 1.16 0.23 3.31 0.23 4.76 l0.03 2.63 -0.34 0.62 c-0.17 0.34 -0.51 0.76 -0.76 0.96 l-0.45 0.34 -1.22 0.03 -1.22 0 -0.82 -0.42 -0.85 -0.42 -0.42 -0.82 -0.40 -0.82 -0.11 -15.80 -0.08 -15.77 0.68 -1.39 0.68 -1.36 1.27 -0.76 1.27 -0.74 1.61 -0.37 1.59 -0.40 2.94 0 2.97 0 1.64 0.45 1.67 0.48 1.39 1.25 1.39 1.25 0.62 1.61 0.62 1.61 0.03 2.41 0.03 2.41 -0.93 1.90 -0.91 1.87 -1.78 1.64 -1.78 1.67 -1.81 0.96 -1.81 0.96 0.54 0.31 c0.31 0.17 1.27 1.02 2.12 1.87 l1.56 1.56 0.76 1.44 0.79 1.44 0.40 1.67 c0.25 0.91 0.82 4.36 1.27 7.62 l0.85 5.94 0.20 4.87 0.20 4.84 -0.74 0.74 -0.74 0.74 -0.79 -0.03 c-0.42 0 -1.08 -0.14 -1.39 -0.31z m-6.54 -39.55 l2.18 -2.24 0.59 -1.33 0.59 -1.36 -0.14 -1.10 -0.14 -1.10 -0.48 -0.71 -0.48 -0.74 -1.02 0.17 c-0.59 0.11 -1.39 0.25 -1.81 0.34 l-0.79 0.17 0 1.30 c0 0.74 -0.25 2.86 -0.57 4.73 -0.62 3.88 -0.65 4.10 -0.34 4.10 0.14 0 1.22 -1.02 2.41 -2.24z"/>
  <path d="M232.47 110.86 l-0.57 -0.74 -0.48 -1.84 -0.51 -1.84 -0.34 0 -0.37 0 -1.10 1.10 -1.10 1.10 -1.39 0.23 -1.39 0.20 -1.30 -0.34 -1.27 -0.34 -0.76 -0.74 c-0.42 -0.42 -0.85 -0.99 -0.96 -1.27 l-0.14 -0.51 -0.40 0 -0.37 0 -0.20 0.93 c-0.11 0.48 -0.37 1.19 -0.59 1.56 l-0.40 0.62 -0.85 0 -0.82 0 -0.40 -0.42 -0.42 -0.40 -0.79 -2.07 c-0.42 -1.13 -1.13 -2.86 -1.59 -3.82 l-0.79 -1.78 -0.42 0 c-0.59 0 -0.65 0.20 -1.13 3.82 l-0.42 3.34 -0.31 0.40 -0.31 0.37 -0.65 0 -0.65 0 -0.65 -0.54 -0.68 -0.54 0 -7.90 0 -7.87 0.37 -2.12 0.37 -2.12 0.51 -0.71 0.51 -0.71 0.68 -0.08 0.68 -0.08 0.48 0.37 0.48 0.37 2.32 4.67 c1.25 2.58 2.35 4.73 2.41 4.78 0.25 0.28 0.37 -0.31 0.96 -4.64 0.31 -2.49 0.71 -5.01 0.88 -5.63 l0.28 -1.08 0.68 -0.68 0.68 -0.68 0.71 0 0.74 0 0.45 0.71 0.48 0.74 -0.74 6 c-0.96 7.70 -1.36 11.58 -1.25 11.72 0.11 0.08 2.77 -4.13 4.33 -6.82 l0.79 -1.42 1.39 -1.42 1.39 -1.44 0.54 -1.13 0.51 -1.13 0.28 -3.45 0.31 -3.45 0.57 -1.53 0.57 -1.53 0.65 -0.59 0.62 -0.59 0.76 -0.17 0.74 -0.20 0.62 0.62 0.62 0.62 -0.17 0.74 c-0.25 1.10 -0.76 11.69 -0.79 16.62 l-0.03 4.25 0.76 3.26 c0.42 1.78 0.91 3.93 1.10 4.76 l0.31 1.50 -0.42 0.76 -0.42 0.76 -1.30 0.08 -1.30 0.08 -0.57 -0.71z"/>
  <path d="M203.99 110.35 l-0.40 -0.65 -0.76 -3.54 c-0.42 -1.95 -0.93 -3.93 -1.13 -4.42 l-0.34 -0.85 -1.76 -0.79 -1.76 -0.76 -0.45 0.08 -0.45 0.08 -0.65 2.66 c-0.37 1.47 -0.99 3.68 -1.42 4.93 l-0.74 2.24 -0.54 0.54 -0.54 0.54 -0.51 0 c-0.28 0 -0.74 -0.17 -1.02 -0.37 l-0.48 -0.37 -0.17 -1.19 -0.17 -1.19 0.34 -2.21 c0.54 -3.37 2.18 -9.85 3.77 -14.72 l1.42 -4.44 1.16 -2.35 1.16 -2.38 0.82 -0.68 0.82 -0.68 0.51 0 c0.28 0 0.74 0.08 0.99 0.17 l0.45 0.17 0.40 0.79 0.40 0.76 0.57 4.10 c0.34 2.26 1.22 7.98 2.01 12.71 0.79 4.73 1.44 9.26 1.50 10.05 l0.06 1.44 -0.40 0.45 -0.37 0.48 -0.96 0 -0.96 0 -0.40 -0.62z m-3.40 -15.94 c-0.08 -0.37 -0.25 -1.47 -0.37 -2.41 l-0.17 -1.70 -0.34 0 -0.34 0 -0.51 1.73 -0.54 1.76 0.85 0.65 c0.45 0.37 0.99 0.68 1.22 0.68 l0.37 0 -0.17 -0.71z"/>
  <path d="M139.28 110.49 c-0.40 -0.06 -3.96 -0.57 -7.93 -1.10 l-7.22 -1.02 -0.91 -0.37 -0.88 -0.37 -0.51 -0.76 -0.48 -0.74 0.17 -2.18 c0.40 -5.07 0.79 -10.62 1.02 -13.81 l0.23 -3.43 0.51 -1.05 0.51 -1.05 3.77 -3.40 c2.07 -1.87 4.44 -3.85 5.24 -4.39 l1.44 -0.96 1.05 0 1.02 0 4.19 1.05 4.22 1.08 0.71 0.71 0.71 0.71 -0.11 1.67 -0.11 1.67 -0.91 0.79 -0.91 0.82 -0.88 0 c-0.51 0 -2.04 -0.25 -3.43 -0.59 l-2.55 -0.59 -0.62 0.28 c-0.82 0.37 -6.68 5.12 -6.82 5.52 -0.06 0.20 -0.31 2.43 -0.57 5.01 -0.23 2.58 -0.51 5.41 -0.59 6.28 l-0.17 1.64 0.71 0.25 c0.71 0.28 6.57 0.96 10.93 1.30 1.30 0.11 2.55 0.25 2.77 0.34 l0.40 0.14 0.40 0.82 0.42 0.79 0 1.44 0 1.44 -0.42 0.82 -0.42 0.82 -0.54 0.31 -0.57 0.28 -1.08 -0.03 c-0.59 -0.03 -1.39 -0.11 -1.78 -0.17z"/>
  <path d="M315.39 107.86 l-0.93 -0.23 -1.19 -1.16 -1.16 -1.16 -1.56 -0.28 -1.56 -0.28 -0.62 -0.74 -0.65 -0.71 0 -3.03 0 -3.03 -0.28 -0.99 c-0.14 -0.57 -0.68 -1.61 -1.13 -2.38 l-0.88 -1.36 -0.14 -0.79 -0.17 -0.76 0.45 -0.88 0.45 -0.85 1.98 -1.78 2.01 -1.78 1.33 -1.84 1.33 -1.87 1.76 -1.76 1.78 -1.76 1.87 -0.91 1.87 -0.93 1.92 0 1.95 -0.03 0.79 0.59 0.79 0.59 0.54 0.91 0.51 0.88 0.23 4.76 0.25 4.73 0.57 2.69 c0.31 1.47 0.96 4.27 1.42 6.23 l0.88 3.51 0 0.93 0 0.91 -0.62 0.74 -0.65 0.74 -2.26 0.37 -2.26 0.34 -1.13 0.76 c-1.47 0.96 -3.11 1.53 -4.98 1.73 l-1.53 0.14 -0.96 -0.25z m2.92 -6.79 l0.71 -0.25 0.71 -1.08 0.71 -1.08 0.88 -2.58 0.88 -2.55 -0.71 -1.90 -0.71 -1.90 -0.31 -1.78 c-0.17 -0.96 -0.37 -2.04 -0.42 -2.38 l-0.14 -0.65 -0.68 0 -0.68 0 -1.39 1.10 c-1.73 1.36 -3.34 3.20 -4.10 4.67 l-0.57 1.13 0 1.30 0 1.30 0.34 1.59 0.37 1.59 0.62 1.22 0.59 1.25 0.96 0.65 0.93 0.62 0.65 0 c0.34 0 0.96 -0.11 1.36 -0.28z"/>
  <path d="M109.41 68.14 l-0.93 -0.93 -0.31 -1.10 -0.31 -1.13 0 -1.56 0 -1.56 0.51 -0.99 0.48 -0.99 1.08 -0.54 1.10 -0.54 1.05 0.34 1.05 0.31 0.59 0.62 c0.31 0.37 0.71 1.08 0.91 1.61 l0.31 0.96 0 1.81 0 1.84 -0.45 0.96 -0.48 0.99 -0.79 0.40 -0.79 0.42 -1.05 0 -1.02 0 -0.93 -0.93z"/>
 </g>
</svg>